<svg xmlns="http://www.w3.org/2000/svg" width="33.582" height="36.166" viewBox="0 0 33.582 36.166">
  <g id="journal" transform="translate(-2.25 -2.25)">
    <path id="Path_1" data-name="Path 1" d="M9.667,2.25H30.333A5.167,5.167,0,0,1,35.5,7.417V33.249a5.167,5.167,0,0,1-5.167,5.167H9.667A5.167,5.167,0,0,1,4.5,33.249H7.083a2.583,2.583,0,0,0,2.583,2.583H30.333a2.583,2.583,0,0,0,2.583-2.583V7.417a2.583,2.583,0,0,0-2.583-2.583H9.667A2.583,2.583,0,0,0,7.083,7.417H4.5A5.167,5.167,0,0,1,9.667,2.25Z" transform="translate(0.333 0)" fill="#9e3eca"/>
    <path id="Path_2" data-name="Path 2" d="M4.833,11.583V10.292a1.292,1.292,0,1,1,2.583,0v1.292H8.708a1.292,1.292,0,1,1,0,2.583H3.542a1.292,1.292,0,1,1,0-2.583Zm0,7.75V18.041a1.292,1.292,0,1,1,2.583,0v1.292H8.708a1.292,1.292,0,0,1,0,2.583H3.542a1.292,1.292,0,0,1,0-2.583Zm0,7.75V25.791a1.292,1.292,0,1,1,2.583,0v1.292H8.708a1.292,1.292,0,0,1,0,2.583H3.542a1.292,1.292,0,0,1,0-2.583Z" transform="translate(0 1)" fill="#9e3eca"/>
  </g>
</svg>
